<svg width="32" height="45" viewBox="0 0 32 45" fill="none" xmlns="http://www.w3.org/2000/svg">
<path d="M0.646424 40.4994C0.451161 40.6947 0.451161 41.0113 0.646423 41.2066L3.8284 44.3885C4.02366 44.5838 4.34024 44.5838 4.53551 44.3885C4.73077 44.1933 4.73077 43.8767 4.53551 43.6814L1.70708 40.853L4.53551 38.0246C4.73077 37.8293 4.73078 37.5127 4.53551 37.3175C4.34025 37.1222 4.02367 37.1222 3.82841 37.3175L0.646424 40.4994ZM28.0456 0.975412C36.3852 19.1256 23.1559 40.353 0.999976 40.353L0.999977 41.353C23.8436 41.353 37.6154 19.4078 28.9542 0.557897L28.0456 0.975412Z" fill="#72605A"/>
</svg>
